<svg width="242" height="96" viewBox="0 0 242 96" fill="none" xmlns="http://www.w3.org/2000/svg">
<path d="M185.94 96L137.933 24L233.948 24L185.94 96Z" fill="#D9D9D9"/>
<path d="M14.4375 30.3701H10.2656V43.4951H13.875C17.6562 43.4013 19.6406 41.1826 19.8281 36.8388C19.8281 36.0576 19.75 35.3232 19.5938 34.6357C18.9688 31.792 17.25 30.3701 14.4375 30.3701ZM15 57.2763H1.5V56.0576H5.25V30.3701H1.5V29.1513H16.0781C18.1094 29.1513 19.8594 29.4951 21.3281 30.1826C23.9844 31.4638 25.3125 33.6201 25.3125 36.6513C25.3125 37.9326 25.0625 39.0888 24.5625 40.1201C23.0312 43.2763 19.6094 44.8545 14.2969 44.8545H10.2656V56.0576H13.7812C13.9375 56.0576 14.0938 56.0732 14.25 56.1045C14.75 56.1982 15 56.5888 15 57.2763ZM38.7188 56.1045C38.9375 56.1045 39.125 56.1201 39.2812 56.1513C39.6875 56.2138 39.8906 56.5888 39.8906 57.2763H27.6094V56.1045C28.4219 56.1045 29.0312 56.042 29.4375 55.917C30.3438 55.667 30.7969 54.8388 30.7969 53.4326V38.4326H27.6094V37.2607H34.9688L35.2031 41.8076C35.5781 40.8701 36.1094 40.0263 36.7969 39.2763C38.2969 37.7138 39.9844 36.9326 41.8594 36.9326C42.2031 36.9326 42.5469 36.9638 42.8906 37.0263C44.3594 37.4013 45.0938 38.3232 45.0938 39.792C45.0938 40.0732 45.0469 40.3545 44.9531 40.6357C44.5781 41.667 43.8438 42.1826 42.75 42.1826C42.5 42.1826 42.2656 42.1513 42.0469 42.0888C41.5156 41.9013 40.9844 41.3388 40.4531 40.4013C40.0156 39.6513 39.5781 39.2763 39.1406 39.2763C38.7344 39.3076 38.2812 39.542 37.7812 39.9795C36.125 41.4482 35.2969 43.8076 35.2969 47.0576V56.1045H38.7188ZM51.9844 47.1982C51.9844 48.2295 52.0312 49.167 52.125 50.0107C52.5625 54.3857 54.3438 56.5732 57.4688 56.5732C61 56.5107 62.7969 53.3232 62.8594 47.0107C62.8594 45.792 62.7969 44.6826 62.6719 43.6826C62.1406 39.8076 60.3906 37.8701 57.4219 37.8701C54.1094 38.1201 52.2969 41.2295 51.9844 47.1982ZM57.5625 36.6982C59.875 36.6982 61.9219 37.3076 63.7031 38.5263C66.4531 40.4638 67.8281 43.3232 67.8281 47.1045C67.8281 49.917 66.9688 52.3076 65.25 54.2763C63.2188 56.5888 60.5781 57.7451 57.3281 57.7451C54.9531 57.7451 52.8594 57.0576 51.0469 55.6826C48.3594 53.6826 47.0156 50.792 47.0156 47.0107C47.0156 44.292 47.8438 41.9951 49.5 40.1201C51.5312 37.8388 54.2188 36.6982 57.5625 36.6982ZM92.5312 57.2763H71.0156V56.0576H74.7656V30.3701H71.0156V29.1513H83.7656V30.3701H79.7812V56.0576H85.5938C86.3125 56.0576 86.9688 55.9326 87.5625 55.6826C88.9375 55.0888 89.9531 53.6045 90.6094 51.2295L91.6406 47.5732H92.7656L92.5312 57.2763ZM104.297 56.1045C104.516 56.1045 104.703 56.1201 104.859 56.1513C105.266 56.2138 105.469 56.5888 105.469 57.2763H94.3594V56.1045C95.1406 56.1045 95.75 56.0576 96.1875 55.9638C97.1875 55.6826 97.6875 54.8388 97.6875 53.4326V38.4326H94.3594V37.2607H102.188V56.1045H104.297ZM102.703 30.6982C102.703 31.167 102.609 31.6045 102.422 32.0107C101.891 33.0732 101 33.6045 99.75 33.6045C99.3125 33.6045 98.8906 33.5107 98.4844 33.3232C97.3906 32.8232 96.8438 31.9482 96.8438 30.6982C96.8438 30.2295 96.9531 29.7763 97.1719 29.3388C97.7031 28.2763 98.5625 27.7451 99.75 27.7451C100.219 27.7451 100.672 27.8545 101.109 28.0732C102.172 28.6357 102.703 29.5107 102.703 30.6982ZM117.281 56.1045C117.5 56.1045 117.688 56.1201 117.844 56.1513C118.25 56.2138 118.453 56.5888 118.453 57.2763H107.859V56.1045C108.641 56.1045 109.25 56.042 109.688 55.917C110.594 55.667 111.047 54.8388 111.047 53.4326V38.4326H107.859V37.2607H115.266L115.5 41.4795C115.812 40.7607 116.219 40.0888 116.719 39.4638C118.281 37.6201 120.219 36.6982 122.531 36.6982C123.625 36.6982 124.625 36.9482 125.531 37.4482C127.844 38.667 129 40.9482 129 44.292V56.1045H131.016C131.234 56.1045 131.422 56.1201 131.578 56.1513C131.984 56.2138 132.188 56.5888 132.188 57.2763H121.5V56.1045C122.281 56.1045 122.891 56.042 123.328 55.917C124.078 55.6357 124.453 54.8076 124.453 53.4326V43.6826C124.453 42.9951 124.375 42.3388 124.219 41.7138C123.688 39.8388 122.484 38.9013 120.609 38.9013C119.922 38.9013 119.25 39.0888 118.594 39.4638C116.812 40.4951 115.812 42.2763 115.594 44.8076L115.547 56.1045H117.281ZM144.609 56.1045C144.828 56.1045 145.016 56.1201 145.172 56.1513C145.578 56.2138 145.781 56.5888 145.781 57.2763H134.297V56.1045C135.109 56.1045 135.75 56.042 136.219 55.917C137.312 55.667 137.859 54.8388 137.859 53.4326V27.9795H134.297V26.8076H142.359V47.1513L151.641 38.4326H148.172V37.2607H156.141C156.141 37.417 156.125 37.5732 156.094 37.7295C156.031 38.1982 155.641 38.4326 154.922 38.4326C154.641 38.4326 154.359 38.4638 154.078 38.5263C153.547 38.6513 152.734 39.2295 151.641 40.2607L147.609 44.0576L155.156 56.1045H156.422C156.641 56.1045 156.828 56.1201 156.984 56.1513C157.391 56.2138 157.594 56.5888 157.594 57.2763H150.75L144.516 47.0107L142.359 49.0263V56.1045H144.609ZM181.312 56.1045C181.531 56.1045 181.719 56.1201 181.875 56.1513C182.281 56.2138 182.484 56.5888 182.484 57.2763H175.172L174.844 52.8701C174.562 53.5263 174.203 54.1513 173.766 54.7451C172.297 56.7451 170.344 57.7451 167.906 57.7451C163.469 57.7138 161.234 55.0888 161.203 49.8701V38.4326H157.969V37.2607H165.703V50.6201C165.703 51.0576 165.734 51.4951 165.797 51.9326C166.172 54.3388 167.484 55.542 169.734 55.542C170.484 55.542 171.219 55.3232 171.938 54.8857C173.719 53.792 174.656 51.917 174.75 49.2607V38.4326H171.562V37.2607H179.297V56.1045H181.312ZM192.375 65.0107H195.328C195.547 65.0107 195.734 65.0263 195.891 65.0576C196.297 65.1201 196.5 65.4951 196.5 66.1826H184.734V65.0107C185.547 65.0107 186.172 64.9482 186.609 64.8232C187.453 64.542 187.875 63.7138 187.875 62.3388V38.4326H184.734V37.2607H192.094L192.328 42.1357C192.609 41.292 193 40.5263 193.5 39.8388C195.031 37.7451 197.188 36.6982 199.969 36.6982C201.844 36.6982 203.438 37.2607 204.75 38.3857C206.875 40.2295 207.938 43.0107 207.938 46.7295C207.938 49.8545 207.078 52.4326 205.359 54.4638C203.484 56.6513 201.094 57.7451 198.188 57.7451C195.781 57.6826 193.844 56.9013 192.375 55.4013V65.0107ZM198.047 38.7138C197.016 38.7138 196.062 39.0732 195.188 39.792C193.281 41.4482 192.328 44.2451 192.328 48.1826C192.328 50.0888 192.594 51.7295 193.125 53.1045C194.031 55.3857 195.516 56.5263 197.578 56.5263C198.203 56.5263 198.797 56.4013 199.359 56.1513C201.766 55.1201 202.969 52.167 202.969 47.292C202.969 46.4482 202.922 45.6513 202.828 44.9013C202.391 40.7763 200.797 38.7138 198.047 38.7138Z" fill="#213555"/>
</svg>
